<mxfile host="app.diagrams.net" modified="2023-06-24T14:38:34.587Z" agent="Mozilla/5.0 (Macintosh; Intel Mac OS X 10_15_7) AppleWebKit/537.36 (KHTML, like Gecko) Chrome/114.0.0.0 Safari/537.36" etag="PKJy8-jEVdBhI7mX7Kdt" version="21.5.0" type="device" pages="4">
  <diagram name="Trip happy path using client location as start" id="b4SbSSeDNvztZUZswQz6">
    <mxGraphModel dx="1207" dy="718" grid="1" gridSize="10" guides="1" tooltips="1" connect="1" arrows="1" fold="1" page="1" pageScale="1" pageWidth="1100" pageHeight="850" math="0" shadow="0">
      <root>
        <mxCell id="0" />
        <mxCell id="1" parent="0" />
        <mxCell id="6SqE2iq3v3INhuW2H0y2-1" value="App" style="swimlane;horizontal=0;whiteSpace=wrap;html=1;" parent="1" vertex="1">
          <mxGeometry x="40" y="300" width="2160" height="200" as="geometry" />
        </mxCell>
        <mxCell id="m6PXdY-F9Ei1oLKd_6Ka-3" value="Get Client Geo location" style="points=[[0.25,0,0],[0.5,0,0],[0.75,0,0],[1,0.25,0],[1,0.5,0],[1,0.75,0],[0.75,1,0],[0.5,1,0],[0.25,1,0],[0,0.75,0],[0,0.5,0],[0,0.25,0]];shape=mxgraph.bpmn.task;whiteSpace=wrap;rectStyle=rounded;size=10;html=1;container=1;expand=0;collapsible=0;taskMarker=abstract;" vertex="1" parent="6SqE2iq3v3INhuW2H0y2-1">
          <mxGeometry x="320" y="60" width="120" height="80" as="geometry" />
        </mxCell>
        <mxCell id="m6PXdY-F9Ei1oLKd_6Ka-8" value="Get Target Geo location" style="points=[[0.25,0,0],[0.5,0,0],[0.75,0,0],[1,0.25,0],[1,0.5,0],[1,0.75,0],[0.75,1,0],[0.5,1,0],[0.25,1,0],[0,0.75,0],[0,0.5,0],[0,0.25,0]];shape=mxgraph.bpmn.task;whiteSpace=wrap;rectStyle=rounded;size=10;html=1;container=1;expand=0;collapsible=0;taskMarker=abstract;" vertex="1" parent="6SqE2iq3v3INhuW2H0y2-1">
          <mxGeometry x="560" y="60" width="120" height="80" as="geometry" />
        </mxCell>
        <mxCell id="dXKky9fJ1J5vQsIqOFuL-2" value="" style="edgeStyle=orthogonalEdgeStyle;rounded=0;orthogonalLoop=1;jettySize=auto;html=1;" edge="1" parent="6SqE2iq3v3INhuW2H0y2-1" source="m6PXdY-F9Ei1oLKd_6Ka-12" target="dXKky9fJ1J5vQsIqOFuL-1">
          <mxGeometry relative="1" as="geometry" />
        </mxCell>
        <mxCell id="m6PXdY-F9Ei1oLKd_6Ka-12" value="Obtain available drivers nearest to client initial location" style="points=[[0.25,0,0],[0.5,0,0],[0.75,0,0],[1,0.25,0],[1,0.5,0],[1,0.75,0],[0.75,1,0],[0.5,1,0],[0.25,1,0],[0,0.75,0],[0,0.5,0],[0,0.25,0]];shape=mxgraph.bpmn.task;whiteSpace=wrap;rectStyle=rounded;size=10;html=1;container=1;expand=0;collapsible=0;taskMarker=abstract;" vertex="1" parent="6SqE2iq3v3INhuW2H0y2-1">
          <mxGeometry x="770" y="60" width="120" height="80" as="geometry" />
        </mxCell>
        <mxCell id="m6PXdY-F9Ei1oLKd_6Ka-14" value="Broadcast to connected drivers the announce of the requested trip" style="points=[[0.25,0,0],[0.5,0,0],[0.75,0,0],[1,0.25,0],[1,0.5,0],[1,0.75,0],[0.75,1,0],[0.5,1,0],[0.25,1,0],[0,0.75,0],[0,0.5,0],[0,0.25,0]];shape=mxgraph.bpmn.task;whiteSpace=wrap;rectStyle=rounded;size=10;html=1;container=1;expand=0;collapsible=0;taskMarker=abstract;" vertex="1" parent="6SqE2iq3v3INhuW2H0y2-1">
          <mxGeometry x="1110" y="60" width="120" height="80" as="geometry" />
        </mxCell>
        <mxCell id="m6PXdY-F9Ei1oLKd_6Ka-19" value="Confirm driver for trip" style="points=[[0.25,0,0],[0.5,0,0],[0.75,0,0],[1,0.25,0],[1,0.5,0],[1,0.75,0],[0.75,1,0],[0.5,1,0],[0.25,1,0],[0,0.75,0],[0,0.5,0],[0,0.25,0]];shape=mxgraph.bpmn.task;whiteSpace=wrap;rectStyle=rounded;size=10;html=1;container=1;expand=0;collapsible=0;taskMarker=abstract;" vertex="1" parent="6SqE2iq3v3INhuW2H0y2-1">
          <mxGeometry x="1310" y="60" width="120" height="80" as="geometry" />
        </mxCell>
        <mxCell id="dXKky9fJ1J5vQsIqOFuL-3" style="edgeStyle=orthogonalEdgeStyle;rounded=0;orthogonalLoop=1;jettySize=auto;html=1;entryX=0;entryY=0.5;entryDx=0;entryDy=0;entryPerimeter=0;" edge="1" parent="6SqE2iq3v3INhuW2H0y2-1" source="dXKky9fJ1J5vQsIqOFuL-1" target="m6PXdY-F9Ei1oLKd_6Ka-14">
          <mxGeometry relative="1" as="geometry" />
        </mxCell>
        <mxCell id="dXKky9fJ1J5vQsIqOFuL-1" value="Filter drivers by criteria" style="points=[[0.25,0,0],[0.5,0,0],[0.75,0,0],[1,0.25,0],[1,0.5,0],[1,0.75,0],[0.75,1,0],[0.5,1,0],[0.25,1,0],[0,0.75,0],[0,0.5,0],[0,0.25,0]];shape=mxgraph.bpmn.task;whiteSpace=wrap;rectStyle=rounded;size=10;html=1;container=1;expand=0;collapsible=0;taskMarker=abstract;" vertex="1" parent="6SqE2iq3v3INhuW2H0y2-1">
          <mxGeometry x="940" y="60" width="120" height="80" as="geometry" />
        </mxCell>
        <mxCell id="dXKky9fJ1J5vQsIqOFuL-18" value="" style="edgeStyle=orthogonalEdgeStyle;rounded=0;orthogonalLoop=1;jettySize=auto;html=1;" edge="1" parent="6SqE2iq3v3INhuW2H0y2-1" source="dXKky9fJ1J5vQsIqOFuL-13" target="dXKky9fJ1J5vQsIqOFuL-17">
          <mxGeometry relative="1" as="geometry" />
        </mxCell>
        <mxCell id="dXKky9fJ1J5vQsIqOFuL-13" value="Register the successful trip" style="points=[[0.25,0,0],[0.5,0,0],[0.75,0,0],[1,0.25,0],[1,0.5,0],[1,0.75,0],[0.75,1,0],[0.5,1,0],[0.25,1,0],[0,0.75,0],[0,0.5,0],[0,0.25,0]];shape=mxgraph.bpmn.task;whiteSpace=wrap;rectStyle=rounded;size=10;html=1;container=1;expand=0;collapsible=0;taskMarker=abstract;" vertex="1" parent="6SqE2iq3v3INhuW2H0y2-1">
          <mxGeometry x="1710" y="30" width="120" height="80" as="geometry" />
        </mxCell>
        <mxCell id="dXKky9fJ1J5vQsIqOFuL-17" value="" style="rhombus;whiteSpace=wrap;html=1;" vertex="1" parent="6SqE2iq3v3INhuW2H0y2-1">
          <mxGeometry x="1945" y="50" width="50" height="40" as="geometry" />
        </mxCell>
        <mxCell id="6SqE2iq3v3INhuW2H0y2-2" value="Client" style="swimlane;horizontal=0;whiteSpace=wrap;html=1;" parent="1" vertex="1">
          <mxGeometry x="40" y="500" width="2160" height="200" as="geometry" />
        </mxCell>
        <mxCell id="6SqE2iq3v3INhuW2H0y2-6" style="edgeStyle=orthogonalEdgeStyle;rounded=0;orthogonalLoop=1;jettySize=auto;html=1;entryX=0;entryY=0.5;entryDx=0;entryDy=0;entryPerimeter=0;" parent="6SqE2iq3v3INhuW2H0y2-2" source="6SqE2iq3v3INhuW2H0y2-4" target="m6PXdY-F9Ei1oLKd_6Ka-1" edge="1">
          <mxGeometry relative="1" as="geometry" />
        </mxCell>
        <mxCell id="6SqE2iq3v3INhuW2H0y2-4" value="" style="points=[[0.145,0.145,0],[0.5,0,0],[0.855,0.145,0],[1,0.5,0],[0.855,0.855,0],[0.5,1,0],[0.145,0.855,0],[0,0.5,0]];shape=mxgraph.bpmn.event;html=1;verticalLabelPosition=bottom;labelBackgroundColor=#ffffff;verticalAlign=top;align=center;perimeter=ellipsePerimeter;outlineConnect=0;aspect=fixed;outline=standard;symbol=general;" parent="6SqE2iq3v3INhuW2H0y2-2" vertex="1">
          <mxGeometry x="50" y="75" width="50" height="50" as="geometry" />
        </mxCell>
        <mxCell id="6SqE2iq3v3INhuW2H0y2-5" value="Select Starts Trip" style="points=[[0.25,0,0],[0.5,0,0],[0.75,0,0],[1,0.25,0],[1,0.5,0],[1,0.75,0],[0.75,1,0],[0.5,1,0],[0.25,1,0],[0,0.75,0],[0,0.5,0],[0,0.25,0]];shape=mxgraph.bpmn.task;whiteSpace=wrap;rectStyle=rounded;size=10;html=1;container=1;expand=0;collapsible=0;taskMarker=abstract;" parent="6SqE2iq3v3INhuW2H0y2-2" vertex="1">
          <mxGeometry x="310" y="60" width="120" height="80" as="geometry" />
        </mxCell>
        <mxCell id="m6PXdY-F9Ei1oLKd_6Ka-2" style="edgeStyle=orthogonalEdgeStyle;rounded=0;orthogonalLoop=1;jettySize=auto;html=1;exitX=1;exitY=0.5;exitDx=0;exitDy=0;exitPerimeter=0;entryX=0;entryY=0.5;entryDx=0;entryDy=0;entryPerimeter=0;" edge="1" parent="6SqE2iq3v3INhuW2H0y2-2" source="m6PXdY-F9Ei1oLKd_6Ka-1" target="6SqE2iq3v3INhuW2H0y2-5">
          <mxGeometry relative="1" as="geometry" />
        </mxCell>
        <mxCell id="m6PXdY-F9Ei1oLKd_6Ka-1" value="Starts app" style="points=[[0.25,0,0],[0.5,0,0],[0.75,0,0],[1,0.25,0],[1,0.5,0],[1,0.75,0],[0.75,1,0],[0.5,1,0],[0.25,1,0],[0,0.75,0],[0,0.5,0],[0,0.25,0]];shape=mxgraph.bpmn.task;whiteSpace=wrap;rectStyle=rounded;size=10;html=1;container=1;expand=0;collapsible=0;taskMarker=abstract;" vertex="1" parent="6SqE2iq3v3INhuW2H0y2-2">
          <mxGeometry x="140" y="60" width="120" height="80" as="geometry" />
        </mxCell>
        <mxCell id="m6PXdY-F9Ei1oLKd_6Ka-6" value="Select target destination" style="points=[[0.25,0,0],[0.5,0,0],[0.75,0,0],[1,0.25,0],[1,0.5,0],[1,0.75,0],[0.75,1,0],[0.5,1,0],[0.25,1,0],[0,0.75,0],[0,0.5,0],[0,0.25,0]];shape=mxgraph.bpmn.task;whiteSpace=wrap;rectStyle=rounded;size=10;html=1;container=1;expand=0;collapsible=0;taskMarker=abstract;" vertex="1" parent="6SqE2iq3v3INhuW2H0y2-2">
          <mxGeometry x="460" y="60" width="120" height="80" as="geometry" />
        </mxCell>
        <mxCell id="m6PXdY-F9Ei1oLKd_6Ka-10" value="Confirm initial location and destination" style="points=[[0.25,0,0],[0.5,0,0],[0.75,0,0],[1,0.25,0],[1,0.5,0],[1,0.75,0],[0.75,1,0],[0.5,1,0],[0.25,1,0],[0,0.75,0],[0,0.5,0],[0,0.25,0]];shape=mxgraph.bpmn.task;whiteSpace=wrap;rectStyle=rounded;size=10;html=1;container=1;expand=0;collapsible=0;taskMarker=abstract;" vertex="1" parent="6SqE2iq3v3INhuW2H0y2-2">
          <mxGeometry x="640" y="60" width="120" height="80" as="geometry" />
        </mxCell>
        <mxCell id="dXKky9fJ1J5vQsIqOFuL-5" value="" style="edgeStyle=orthogonalEdgeStyle;rounded=0;orthogonalLoop=1;jettySize=auto;html=1;" edge="1" parent="6SqE2iq3v3INhuW2H0y2-2" source="m6PXdY-F9Ei1oLKd_6Ka-21" target="dXKky9fJ1J5vQsIqOFuL-4">
          <mxGeometry relative="1" as="geometry" />
        </mxCell>
        <mxCell id="m6PXdY-F9Ei1oLKd_6Ka-21" value="Shows Driver information" style="points=[[0.25,0,0],[0.5,0,0],[0.75,0,0],[1,0.25,0],[1,0.5,0],[1,0.75,0],[0.75,1,0],[0.5,1,0],[0.25,1,0],[0,0.75,0],[0,0.5,0],[0,0.25,0]];shape=mxgraph.bpmn.task;whiteSpace=wrap;rectStyle=rounded;size=10;html=1;container=1;expand=0;collapsible=0;taskMarker=abstract;" vertex="1" parent="6SqE2iq3v3INhuW2H0y2-2">
          <mxGeometry x="1310" y="60" width="120" height="80" as="geometry" />
        </mxCell>
        <mxCell id="dXKky9fJ1J5vQsIqOFuL-4" value="Pooling Driver location and show in app" style="points=[[0.25,0,0],[0.5,0,0],[0.75,0,0],[1,0.25,0],[1,0.5,0],[1,0.75,0],[0.75,1,0],[0.5,1,0],[0.25,1,0],[0,0.75,0],[0,0.5,0],[0,0.25,0]];shape=mxgraph.bpmn.task;whiteSpace=wrap;rectStyle=rounded;size=10;html=1;container=1;expand=0;collapsible=0;taskMarker=abstract;" vertex="1" parent="6SqE2iq3v3INhuW2H0y2-2">
          <mxGeometry x="1510" y="60" width="120" height="80" as="geometry" />
        </mxCell>
        <mxCell id="dXKky9fJ1J5vQsIqOFuL-22" style="edgeStyle=orthogonalEdgeStyle;rounded=0;orthogonalLoop=1;jettySize=auto;html=1;entryX=0;entryY=0.5;entryDx=0;entryDy=0;" edge="1" parent="6SqE2iq3v3INhuW2H0y2-2" source="dXKky9fJ1J5vQsIqOFuL-15" target="6SqE2iq3v3INhuW2H0y2-16">
          <mxGeometry relative="1" as="geometry" />
        </mxCell>
        <mxCell id="dXKky9fJ1J5vQsIqOFuL-15" value="Show tip options and driver evaluation" style="points=[[0.25,0,0],[0.5,0,0],[0.75,0,0],[1,0.25,0],[1,0.5,0],[1,0.75,0],[0.75,1,0],[0.5,1,0],[0.25,1,0],[0,0.75,0],[0,0.5,0],[0,0.25,0]];shape=mxgraph.bpmn.task;whiteSpace=wrap;rectStyle=rounded;size=10;html=1;container=1;expand=0;collapsible=0;taskMarker=abstract;" vertex="1" parent="6SqE2iq3v3INhuW2H0y2-2">
          <mxGeometry x="1910" y="60" width="120" height="80" as="geometry" />
        </mxCell>
        <mxCell id="6SqE2iq3v3INhuW2H0y2-16" value="" style="ellipse;whiteSpace=wrap;html=1;aspect=fixed;fillColor=#000000;" parent="6SqE2iq3v3INhuW2H0y2-2" vertex="1">
          <mxGeometry x="2080" y="75" width="50" height="50" as="geometry" />
        </mxCell>
        <mxCell id="6SqE2iq3v3INhuW2H0y2-3" value="Driver" style="swimlane;horizontal=0;whiteSpace=wrap;html=1;" parent="1" vertex="1">
          <mxGeometry x="40" y="100" width="2160" height="200" as="geometry" />
        </mxCell>
        <mxCell id="6SqE2iq3v3INhuW2H0y2-9" value="Accepts trip" style="points=[[0.25,0,0],[0.5,0,0],[0.75,0,0],[1,0.25,0],[1,0.5,0],[1,0.75,0],[0.75,1,0],[0.5,1,0],[0.25,1,0],[0,0.75,0],[0,0.5,0],[0,0.25,0]];shape=mxgraph.bpmn.task;whiteSpace=wrap;rectStyle=rounded;size=10;html=1;container=1;expand=0;collapsible=0;taskMarker=abstract;" parent="6SqE2iq3v3INhuW2H0y2-3" vertex="1">
          <mxGeometry x="1310" y="50" width="120" height="80" as="geometry" />
        </mxCell>
        <mxCell id="6SqE2iq3v3INhuW2H0y2-7" value="Claim trip" style="points=[[0.25,0,0],[0.5,0,0],[0.75,0,0],[1,0.25,0],[1,0.5,0],[1,0.75,0],[0.75,1,0],[0.5,1,0],[0.25,1,0],[0,0.75,0],[0,0.5,0],[0,0.25,0]];shape=mxgraph.bpmn.task;whiteSpace=wrap;rectStyle=rounded;size=10;html=1;container=1;expand=0;collapsible=0;taskMarker=abstract;" parent="6SqE2iq3v3INhuW2H0y2-3" vertex="1">
          <mxGeometry x="1110" y="50" width="120" height="80" as="geometry" />
        </mxCell>
        <mxCell id="6SqE2iq3v3INhuW2H0y2-10" style="edgeStyle=orthogonalEdgeStyle;rounded=0;orthogonalLoop=1;jettySize=auto;html=1;" parent="6SqE2iq3v3INhuW2H0y2-3" source="6SqE2iq3v3INhuW2H0y2-7" target="6SqE2iq3v3INhuW2H0y2-9" edge="1">
          <mxGeometry relative="1" as="geometry" />
        </mxCell>
        <mxCell id="dXKky9fJ1J5vQsIqOFuL-9" value="" style="edgeStyle=orthogonalEdgeStyle;rounded=0;orthogonalLoop=1;jettySize=auto;html=1;" edge="1" parent="6SqE2iq3v3INhuW2H0y2-3" source="dXKky9fJ1J5vQsIqOFuL-6" target="dXKky9fJ1J5vQsIqOFuL-8">
          <mxGeometry relative="1" as="geometry" />
        </mxCell>
        <mxCell id="dXKky9fJ1J5vQsIqOFuL-6" value="Notify client in car" style="points=[[0.25,0,0],[0.5,0,0],[0.75,0,0],[1,0.25,0],[1,0.5,0],[1,0.75,0],[0.75,1,0],[0.5,1,0],[0.25,1,0],[0,0.75,0],[0,0.5,0],[0,0.25,0]];shape=mxgraph.bpmn.task;whiteSpace=wrap;rectStyle=rounded;size=10;html=1;container=1;expand=0;collapsible=0;taskMarker=abstract;" vertex="1" parent="6SqE2iq3v3INhuW2H0y2-3">
          <mxGeometry x="1510" y="50" width="120" height="80" as="geometry" />
        </mxCell>
        <mxCell id="dXKky9fJ1J5vQsIqOFuL-8" value="Notify trip finished" style="points=[[0.25,0,0],[0.5,0,0],[0.75,0,0],[1,0.25,0],[1,0.5,0],[1,0.75,0],[0.75,1,0],[0.5,1,0],[0.25,1,0],[0,0.75,0],[0,0.5,0],[0,0.25,0]];shape=mxgraph.bpmn.task;whiteSpace=wrap;rectStyle=rounded;size=10;html=1;container=1;expand=0;collapsible=0;taskMarker=abstract;" vertex="1" parent="6SqE2iq3v3INhuW2H0y2-3">
          <mxGeometry x="1710" y="50" width="120" height="80" as="geometry" />
        </mxCell>
        <mxCell id="dXKky9fJ1J5vQsIqOFuL-23" style="edgeStyle=orthogonalEdgeStyle;rounded=0;orthogonalLoop=1;jettySize=auto;html=1;entryX=0;entryY=0.5;entryDx=0;entryDy=0;" edge="1" parent="6SqE2iq3v3INhuW2H0y2-3" source="6SqE2iq3v3INhuW2H0y2-13" target="dXKky9fJ1J5vQsIqOFuL-21">
          <mxGeometry relative="1" as="geometry" />
        </mxCell>
        <mxCell id="6SqE2iq3v3INhuW2H0y2-13" value="Evaluate client" style="points=[[0.25,0,0],[0.5,0,0],[0.75,0,0],[1,0.25,0],[1,0.5,0],[1,0.75,0],[0.75,1,0],[0.5,1,0],[0.25,1,0],[0,0.75,0],[0,0.5,0],[0,0.25,0]];shape=mxgraph.bpmn.task;whiteSpace=wrap;rectStyle=rounded;size=10;html=1;container=1;expand=0;collapsible=0;taskMarker=abstract;" parent="6SqE2iq3v3INhuW2H0y2-3" vertex="1">
          <mxGeometry x="1910" y="50" width="120" height="80" as="geometry" />
        </mxCell>
        <mxCell id="dXKky9fJ1J5vQsIqOFuL-21" value="" style="ellipse;whiteSpace=wrap;html=1;aspect=fixed;fillColor=#000000;" vertex="1" parent="6SqE2iq3v3INhuW2H0y2-3">
          <mxGeometry x="2090" y="65" width="50" height="50" as="geometry" />
        </mxCell>
        <mxCell id="m6PXdY-F9Ei1oLKd_6Ka-4" value="" style="edgeStyle=orthogonalEdgeStyle;rounded=0;orthogonalLoop=1;jettySize=auto;html=1;" edge="1" parent="1" source="6SqE2iq3v3INhuW2H0y2-5" target="m6PXdY-F9Ei1oLKd_6Ka-3">
          <mxGeometry relative="1" as="geometry">
            <Array as="points">
              <mxPoint x="410" y="460" />
              <mxPoint x="410" y="460" />
            </Array>
          </mxGeometry>
        </mxCell>
        <mxCell id="m6PXdY-F9Ei1oLKd_6Ka-7" value="" style="edgeStyle=orthogonalEdgeStyle;rounded=0;orthogonalLoop=1;jettySize=auto;html=1;" edge="1" parent="1" source="m6PXdY-F9Ei1oLKd_6Ka-3" target="m6PXdY-F9Ei1oLKd_6Ka-6">
          <mxGeometry relative="1" as="geometry" />
        </mxCell>
        <mxCell id="m6PXdY-F9Ei1oLKd_6Ka-9" value="" style="edgeStyle=orthogonalEdgeStyle;rounded=0;orthogonalLoop=1;jettySize=auto;html=1;" edge="1" parent="1" source="m6PXdY-F9Ei1oLKd_6Ka-6" target="m6PXdY-F9Ei1oLKd_6Ka-8">
          <mxGeometry relative="1" as="geometry">
            <Array as="points">
              <mxPoint x="660" y="600" />
            </Array>
          </mxGeometry>
        </mxCell>
        <mxCell id="m6PXdY-F9Ei1oLKd_6Ka-11" value="" style="edgeStyle=orthogonalEdgeStyle;rounded=0;orthogonalLoop=1;jettySize=auto;html=1;" edge="1" parent="1" source="m6PXdY-F9Ei1oLKd_6Ka-8" target="m6PXdY-F9Ei1oLKd_6Ka-10">
          <mxGeometry relative="1" as="geometry">
            <Array as="points">
              <mxPoint x="740" y="400" />
            </Array>
          </mxGeometry>
        </mxCell>
        <mxCell id="m6PXdY-F9Ei1oLKd_6Ka-13" value="" style="edgeStyle=orthogonalEdgeStyle;rounded=0;orthogonalLoop=1;jettySize=auto;html=1;" edge="1" parent="1" source="m6PXdY-F9Ei1oLKd_6Ka-10" target="m6PXdY-F9Ei1oLKd_6Ka-12">
          <mxGeometry relative="1" as="geometry" />
        </mxCell>
        <mxCell id="m6PXdY-F9Ei1oLKd_6Ka-16" style="edgeStyle=orthogonalEdgeStyle;rounded=0;orthogonalLoop=1;jettySize=auto;html=1;entryX=0.5;entryY=1;entryDx=0;entryDy=0;entryPerimeter=0;" edge="1" parent="1" source="m6PXdY-F9Ei1oLKd_6Ka-14" target="6SqE2iq3v3INhuW2H0y2-7">
          <mxGeometry relative="1" as="geometry" />
        </mxCell>
        <mxCell id="m6PXdY-F9Ei1oLKd_6Ka-20" value="" style="edgeStyle=orthogonalEdgeStyle;rounded=0;orthogonalLoop=1;jettySize=auto;html=1;" edge="1" parent="1" source="6SqE2iq3v3INhuW2H0y2-9" target="m6PXdY-F9Ei1oLKd_6Ka-19">
          <mxGeometry relative="1" as="geometry" />
        </mxCell>
        <mxCell id="m6PXdY-F9Ei1oLKd_6Ka-22" value="" style="edgeStyle=orthogonalEdgeStyle;rounded=0;orthogonalLoop=1;jettySize=auto;html=1;" edge="1" parent="1" source="m6PXdY-F9Ei1oLKd_6Ka-19" target="m6PXdY-F9Ei1oLKd_6Ka-21">
          <mxGeometry relative="1" as="geometry" />
        </mxCell>
        <mxCell id="dXKky9fJ1J5vQsIqOFuL-7" value="" style="edgeStyle=orthogonalEdgeStyle;rounded=0;orthogonalLoop=1;jettySize=auto;html=1;" edge="1" parent="1" source="dXKky9fJ1J5vQsIqOFuL-4" target="dXKky9fJ1J5vQsIqOFuL-6">
          <mxGeometry relative="1" as="geometry" />
        </mxCell>
        <mxCell id="dXKky9fJ1J5vQsIqOFuL-14" value="" style="edgeStyle=orthogonalEdgeStyle;rounded=0;orthogonalLoop=1;jettySize=auto;html=1;" edge="1" parent="1" source="dXKky9fJ1J5vQsIqOFuL-8" target="dXKky9fJ1J5vQsIqOFuL-13">
          <mxGeometry relative="1" as="geometry" />
        </mxCell>
        <mxCell id="dXKky9fJ1J5vQsIqOFuL-19" style="edgeStyle=orthogonalEdgeStyle;rounded=0;orthogonalLoop=1;jettySize=auto;html=1;entryX=0.5;entryY=1;entryDx=0;entryDy=0;entryPerimeter=0;" edge="1" parent="1" source="dXKky9fJ1J5vQsIqOFuL-17" target="6SqE2iq3v3INhuW2H0y2-13">
          <mxGeometry relative="1" as="geometry" />
        </mxCell>
        <mxCell id="dXKky9fJ1J5vQsIqOFuL-20" style="edgeStyle=orthogonalEdgeStyle;rounded=0;orthogonalLoop=1;jettySize=auto;html=1;" edge="1" parent="1" source="dXKky9fJ1J5vQsIqOFuL-17" target="dXKky9fJ1J5vQsIqOFuL-15">
          <mxGeometry relative="1" as="geometry" />
        </mxCell>
      </root>
    </mxGraphModel>
  </diagram>
  <diagram id="D8gGSvz0njGLkRoUGnHr" name="Client Registration flow">
    <mxGraphModel dx="1140" dy="678" grid="1" gridSize="10" guides="1" tooltips="1" connect="1" arrows="1" fold="1" page="1" pageScale="1" pageWidth="850" pageHeight="1100" math="0" shadow="0">
      <root>
        <mxCell id="0" />
        <mxCell id="1" parent="0" />
        <mxCell id="n2gwg3w4biH0eDLSQyM0-1" value="App" style="swimlane;horizontal=0;whiteSpace=wrap;html=1;" vertex="1" parent="1">
          <mxGeometry x="40" y="300" width="980" height="200" as="geometry" />
        </mxCell>
        <mxCell id="n2gwg3w4biH0eDLSQyM0-20" value="" style="edgeStyle=orthogonalEdgeStyle;rounded=0;orthogonalLoop=1;jettySize=auto;html=1;" edge="1" parent="n2gwg3w4biH0eDLSQyM0-1" source="n2gwg3w4biH0eDLSQyM0-10" target="n2gwg3w4biH0eDLSQyM0-19">
          <mxGeometry relative="1" as="geometry" />
        </mxCell>
        <mxCell id="n2gwg3w4biH0eDLSQyM0-10" value="Create user in Authentication system" style="points=[[0.25,0,0],[0.5,0,0],[0.75,0,0],[1,0.25,0],[1,0.5,0],[1,0.75,0],[0.75,1,0],[0.5,1,0],[0.25,1,0],[0,0.75,0],[0,0.5,0],[0,0.25,0]];shape=mxgraph.bpmn.task;whiteSpace=wrap;rectStyle=rounded;size=10;html=1;container=1;expand=0;collapsible=0;taskMarker=abstract;" vertex="1" parent="n2gwg3w4biH0eDLSQyM0-1">
          <mxGeometry x="370" y="50" width="120" height="80" as="geometry" />
        </mxCell>
        <mxCell id="n2gwg3w4biH0eDLSQyM0-19" value="Create client in Data system" style="points=[[0.25,0,0],[0.5,0,0],[0.75,0,0],[1,0.25,0],[1,0.5,0],[1,0.75,0],[0.75,1,0],[0.5,1,0],[0.25,1,0],[0,0.75,0],[0,0.5,0],[0,0.25,0]];shape=mxgraph.bpmn.task;whiteSpace=wrap;rectStyle=rounded;size=10;html=1;container=1;expand=0;collapsible=0;taskMarker=abstract;" vertex="1" parent="n2gwg3w4biH0eDLSQyM0-1">
          <mxGeometry x="570" y="50" width="120" height="80" as="geometry" />
        </mxCell>
        <mxCell id="n2gwg3w4biH0eDLSQyM0-4" value="Client" style="swimlane;horizontal=0;whiteSpace=wrap;html=1;" vertex="1" parent="1">
          <mxGeometry x="40" y="500" width="980" height="200" as="geometry" />
        </mxCell>
        <mxCell id="n2gwg3w4biH0eDLSQyM0-5" style="edgeStyle=orthogonalEdgeStyle;rounded=0;orthogonalLoop=1;jettySize=auto;html=1;entryX=0;entryY=0.5;entryDx=0;entryDy=0;entryPerimeter=0;" edge="1" parent="n2gwg3w4biH0eDLSQyM0-4" source="n2gwg3w4biH0eDLSQyM0-6" target="n2gwg3w4biH0eDLSQyM0-7">
          <mxGeometry relative="1" as="geometry" />
        </mxCell>
        <mxCell id="n2gwg3w4biH0eDLSQyM0-6" value="" style="points=[[0.145,0.145,0],[0.5,0,0],[0.855,0.145,0],[1,0.5,0],[0.855,0.855,0],[0.5,1,0],[0.145,0.855,0],[0,0.5,0]];shape=mxgraph.bpmn.event;html=1;verticalLabelPosition=bottom;labelBackgroundColor=#ffffff;verticalAlign=top;align=center;perimeter=ellipsePerimeter;outlineConnect=0;aspect=fixed;outline=standard;symbol=general;" vertex="1" parent="n2gwg3w4biH0eDLSQyM0-4">
          <mxGeometry x="70" y="75" width="50" height="50" as="geometry" />
        </mxCell>
        <mxCell id="n2gwg3w4biH0eDLSQyM0-7" value="Starts app" style="points=[[0.25,0,0],[0.5,0,0],[0.75,0,0],[1,0.25,0],[1,0.5,0],[1,0.75,0],[0.75,1,0],[0.5,1,0],[0.25,1,0],[0,0.75,0],[0,0.5,0],[0,0.25,0]];shape=mxgraph.bpmn.task;whiteSpace=wrap;rectStyle=rounded;size=10;html=1;container=1;expand=0;collapsible=0;taskMarker=abstract;" vertex="1" parent="n2gwg3w4biH0eDLSQyM0-4">
          <mxGeometry x="180" y="60" width="120" height="80" as="geometry" />
        </mxCell>
        <mxCell id="n2gwg3w4biH0eDLSQyM0-2" value="Complete registration form" style="points=[[0.25,0,0],[0.5,0,0],[0.75,0,0],[1,0.25,0],[1,0.5,0],[1,0.75,0],[0.75,1,0],[0.5,1,0],[0.25,1,0],[0,0.75,0],[0,0.5,0],[0,0.25,0]];shape=mxgraph.bpmn.task;whiteSpace=wrap;rectStyle=rounded;size=10;html=1;container=1;expand=0;collapsible=0;taskMarker=abstract;" vertex="1" parent="n2gwg3w4biH0eDLSQyM0-4">
          <mxGeometry x="370" y="60" width="120" height="80" as="geometry" />
        </mxCell>
        <mxCell id="n2gwg3w4biH0eDLSQyM0-14" style="edgeStyle=orthogonalEdgeStyle;rounded=0;orthogonalLoop=1;jettySize=auto;html=1;" edge="1" parent="n2gwg3w4biH0eDLSQyM0-4" source="n2gwg3w4biH0eDLSQyM0-7" target="n2gwg3w4biH0eDLSQyM0-2">
          <mxGeometry relative="1" as="geometry" />
        </mxCell>
        <mxCell id="n2gwg3w4biH0eDLSQyM0-13" value="" style="ellipse;whiteSpace=wrap;html=1;aspect=fixed;fillColor=#000000;" vertex="1" parent="n2gwg3w4biH0eDLSQyM0-4">
          <mxGeometry x="880" y="75" width="50" height="50" as="geometry" />
        </mxCell>
        <mxCell id="n2gwg3w4biH0eDLSQyM0-12" value="App is in it&#39;s main menu for client&amp;nbsp;" style="points=[[0.25,0,0],[0.5,0,0],[0.75,0,0],[1,0.25,0],[1,0.5,0],[1,0.75,0],[0.75,1,0],[0.5,1,0],[0.25,1,0],[0,0.75,0],[0,0.5,0],[0,0.25,0]];shape=mxgraph.bpmn.task;whiteSpace=wrap;rectStyle=rounded;size=10;html=1;container=1;expand=0;collapsible=0;taskMarker=abstract;" vertex="1" parent="n2gwg3w4biH0eDLSQyM0-4">
          <mxGeometry x="570" y="60" width="120" height="80" as="geometry" />
        </mxCell>
        <mxCell id="n2gwg3w4biH0eDLSQyM0-11" value="" style="edgeStyle=orthogonalEdgeStyle;rounded=0;orthogonalLoop=1;jettySize=auto;html=1;" edge="1" parent="n2gwg3w4biH0eDLSQyM0-4" source="n2gwg3w4biH0eDLSQyM0-12" target="n2gwg3w4biH0eDLSQyM0-13">
          <mxGeometry relative="1" as="geometry" />
        </mxCell>
        <mxCell id="n2gwg3w4biH0eDLSQyM0-15" style="edgeStyle=orthogonalEdgeStyle;rounded=0;orthogonalLoop=1;jettySize=auto;html=1;" edge="1" parent="1" source="n2gwg3w4biH0eDLSQyM0-2" target="n2gwg3w4biH0eDLSQyM0-10">
          <mxGeometry relative="1" as="geometry" />
        </mxCell>
        <mxCell id="n2gwg3w4biH0eDLSQyM0-21" style="edgeStyle=orthogonalEdgeStyle;rounded=0;orthogonalLoop=1;jettySize=auto;html=1;exitX=0.5;exitY=1;exitDx=0;exitDy=0;exitPerimeter=0;" edge="1" parent="1" source="n2gwg3w4biH0eDLSQyM0-19" target="n2gwg3w4biH0eDLSQyM0-12">
          <mxGeometry relative="1" as="geometry" />
        </mxCell>
      </root>
    </mxGraphModel>
  </diagram>
  <diagram id="ks2n3edpZDyrcrVksH1o" name="Driver Registration Flow">
    <mxGraphModel dx="1207" dy="718" grid="1" gridSize="10" guides="1" tooltips="1" connect="1" arrows="1" fold="1" page="1" pageScale="1" pageWidth="850" pageHeight="1100" math="0" shadow="0">
      <root>
        <mxCell id="0" />
        <mxCell id="1" parent="0" />
        <mxCell id="xxOYMUocA_w6UjREiuGi-1" value="App" style="swimlane;horizontal=0;whiteSpace=wrap;html=1;" vertex="1" parent="1">
          <mxGeometry x="40" y="300" width="980" height="200" as="geometry" />
        </mxCell>
        <mxCell id="xxOYMUocA_w6UjREiuGi-2" value="" style="edgeStyle=orthogonalEdgeStyle;rounded=0;orthogonalLoop=1;jettySize=auto;html=1;" edge="1" parent="xxOYMUocA_w6UjREiuGi-1" source="xxOYMUocA_w6UjREiuGi-3" target="xxOYMUocA_w6UjREiuGi-4">
          <mxGeometry relative="1" as="geometry" />
        </mxCell>
        <mxCell id="xxOYMUocA_w6UjREiuGi-3" value="Create user in Authentication system" style="points=[[0.25,0,0],[0.5,0,0],[0.75,0,0],[1,0.25,0],[1,0.5,0],[1,0.75,0],[0.75,1,0],[0.5,1,0],[0.25,1,0],[0,0.75,0],[0,0.5,0],[0,0.25,0]];shape=mxgraph.bpmn.task;whiteSpace=wrap;rectStyle=rounded;size=10;html=1;container=1;expand=0;collapsible=0;taskMarker=abstract;" vertex="1" parent="xxOYMUocA_w6UjREiuGi-1">
          <mxGeometry x="480" y="50" width="120" height="80" as="geometry" />
        </mxCell>
        <mxCell id="xxOYMUocA_w6UjREiuGi-4" value="Create driver in Data system" style="points=[[0.25,0,0],[0.5,0,0],[0.75,0,0],[1,0.25,0],[1,0.5,0],[1,0.75,0],[0.75,1,0],[0.5,1,0],[0.25,1,0],[0,0.75,0],[0,0.5,0],[0,0.25,0]];shape=mxgraph.bpmn.task;whiteSpace=wrap;rectStyle=rounded;size=10;html=1;container=1;expand=0;collapsible=0;taskMarker=abstract;" vertex="1" parent="xxOYMUocA_w6UjREiuGi-1">
          <mxGeometry x="640" y="50" width="120" height="80" as="geometry" />
        </mxCell>
        <mxCell id="yvqbchbb2BaxcTLoluS5-3" style="edgeStyle=orthogonalEdgeStyle;rounded=0;orthogonalLoop=1;jettySize=auto;html=1;exitX=1;exitY=0.5;exitDx=0;exitDy=0;exitPerimeter=0;entryX=0;entryY=0.5;entryDx=0;entryDy=0;entryPerimeter=0;" edge="1" parent="xxOYMUocA_w6UjREiuGi-1" source="yvqbchbb2BaxcTLoluS5-1" target="xxOYMUocA_w6UjREiuGi-3">
          <mxGeometry relative="1" as="geometry" />
        </mxCell>
        <mxCell id="yvqbchbb2BaxcTLoluS5-1" value="Validaciones - Verificaciones" style="points=[[0.25,0,0],[0.5,0,0],[0.75,0,0],[1,0.25,0],[1,0.5,0],[1,0.75,0],[0.75,1,0],[0.5,1,0],[0.25,1,0],[0,0.75,0],[0,0.5,0],[0,0.25,0]];shape=mxgraph.bpmn.task;whiteSpace=wrap;rectStyle=rounded;size=10;html=1;container=1;expand=0;collapsible=0;taskMarker=abstract;" vertex="1" parent="xxOYMUocA_w6UjREiuGi-1">
          <mxGeometry x="300" y="50" width="120" height="80" as="geometry" />
        </mxCell>
        <mxCell id="xxOYMUocA_w6UjREiuGi-5" value="Driver" style="swimlane;horizontal=0;whiteSpace=wrap;html=1;" vertex="1" parent="1">
          <mxGeometry x="40" y="500" width="980" height="200" as="geometry" />
        </mxCell>
        <mxCell id="xxOYMUocA_w6UjREiuGi-6" style="edgeStyle=orthogonalEdgeStyle;rounded=0;orthogonalLoop=1;jettySize=auto;html=1;entryX=0;entryY=0.5;entryDx=0;entryDy=0;entryPerimeter=0;" edge="1" parent="xxOYMUocA_w6UjREiuGi-5" source="xxOYMUocA_w6UjREiuGi-7" target="xxOYMUocA_w6UjREiuGi-8">
          <mxGeometry relative="1" as="geometry" />
        </mxCell>
        <mxCell id="xxOYMUocA_w6UjREiuGi-7" value="" style="points=[[0.145,0.145,0],[0.5,0,0],[0.855,0.145,0],[1,0.5,0],[0.855,0.855,0],[0.5,1,0],[0.145,0.855,0],[0,0.5,0]];shape=mxgraph.bpmn.event;html=1;verticalLabelPosition=bottom;labelBackgroundColor=#ffffff;verticalAlign=top;align=center;perimeter=ellipsePerimeter;outlineConnect=0;aspect=fixed;outline=standard;symbol=general;" vertex="1" parent="xxOYMUocA_w6UjREiuGi-5">
          <mxGeometry x="70" y="75" width="50" height="50" as="geometry" />
        </mxCell>
        <mxCell id="xxOYMUocA_w6UjREiuGi-8" value="Starts app" style="points=[[0.25,0,0],[0.5,0,0],[0.75,0,0],[1,0.25,0],[1,0.5,0],[1,0.75,0],[0.75,1,0],[0.5,1,0],[0.25,1,0],[0,0.75,0],[0,0.5,0],[0,0.25,0]];shape=mxgraph.bpmn.task;whiteSpace=wrap;rectStyle=rounded;size=10;html=1;container=1;expand=0;collapsible=0;taskMarker=abstract;" vertex="1" parent="xxOYMUocA_w6UjREiuGi-5">
          <mxGeometry x="180" y="60" width="120" height="80" as="geometry" />
        </mxCell>
        <mxCell id="xxOYMUocA_w6UjREiuGi-9" value="Complete registration form" style="points=[[0.25,0,0],[0.5,0,0],[0.75,0,0],[1,0.25,0],[1,0.5,0],[1,0.75,0],[0.75,1,0],[0.5,1,0],[0.25,1,0],[0,0.75,0],[0,0.5,0],[0,0.25,0]];shape=mxgraph.bpmn.task;whiteSpace=wrap;rectStyle=rounded;size=10;html=1;container=1;expand=0;collapsible=0;taskMarker=abstract;" vertex="1" parent="xxOYMUocA_w6UjREiuGi-5">
          <mxGeometry x="370" y="60" width="120" height="80" as="geometry" />
        </mxCell>
        <mxCell id="xxOYMUocA_w6UjREiuGi-10" style="edgeStyle=orthogonalEdgeStyle;rounded=0;orthogonalLoop=1;jettySize=auto;html=1;" edge="1" parent="xxOYMUocA_w6UjREiuGi-5" source="xxOYMUocA_w6UjREiuGi-8" target="xxOYMUocA_w6UjREiuGi-9">
          <mxGeometry relative="1" as="geometry" />
        </mxCell>
        <mxCell id="xxOYMUocA_w6UjREiuGi-11" value="" style="ellipse;whiteSpace=wrap;html=1;aspect=fixed;fillColor=#000000;" vertex="1" parent="xxOYMUocA_w6UjREiuGi-5">
          <mxGeometry x="880" y="75" width="50" height="50" as="geometry" />
        </mxCell>
        <mxCell id="xxOYMUocA_w6UjREiuGi-12" value="App is in it&#39;s main menu for driver" style="points=[[0.25,0,0],[0.5,0,0],[0.75,0,0],[1,0.25,0],[1,0.5,0],[1,0.75,0],[0.75,1,0],[0.5,1,0],[0.25,1,0],[0,0.75,0],[0,0.5,0],[0,0.25,0]];shape=mxgraph.bpmn.task;whiteSpace=wrap;rectStyle=rounded;size=10;html=1;container=1;expand=0;collapsible=0;taskMarker=abstract;" vertex="1" parent="xxOYMUocA_w6UjREiuGi-5">
          <mxGeometry x="640" y="60" width="120" height="80" as="geometry" />
        </mxCell>
        <mxCell id="xxOYMUocA_w6UjREiuGi-13" value="" style="edgeStyle=orthogonalEdgeStyle;rounded=0;orthogonalLoop=1;jettySize=auto;html=1;" edge="1" parent="xxOYMUocA_w6UjREiuGi-5" source="xxOYMUocA_w6UjREiuGi-12" target="xxOYMUocA_w6UjREiuGi-11">
          <mxGeometry relative="1" as="geometry" />
        </mxCell>
        <mxCell id="xxOYMUocA_w6UjREiuGi-14" style="edgeStyle=orthogonalEdgeStyle;rounded=0;orthogonalLoop=1;jettySize=auto;html=1;entryX=0.5;entryY=1;entryDx=0;entryDy=0;entryPerimeter=0;" edge="1" parent="1" source="xxOYMUocA_w6UjREiuGi-9" target="yvqbchbb2BaxcTLoluS5-1">
          <mxGeometry relative="1" as="geometry" />
        </mxCell>
        <mxCell id="xxOYMUocA_w6UjREiuGi-15" style="edgeStyle=orthogonalEdgeStyle;rounded=0;orthogonalLoop=1;jettySize=auto;html=1;exitX=0.5;exitY=1;exitDx=0;exitDy=0;exitPerimeter=0;" edge="1" parent="1" source="xxOYMUocA_w6UjREiuGi-4" target="xxOYMUocA_w6UjREiuGi-12">
          <mxGeometry relative="1" as="geometry" />
        </mxCell>
      </root>
    </mxGraphModel>
  </diagram>
  <diagram id="427A9RSLUgObeuPDh2Oe" name="Rejected trip by Driver Flow">
    <mxGraphModel dx="1026" dy="610" grid="1" gridSize="10" guides="1" tooltips="1" connect="1" arrows="1" fold="1" page="1" pageScale="1" pageWidth="850" pageHeight="1100" math="0" shadow="0">
      <root>
        <mxCell id="0" />
        <mxCell id="1" parent="0" />
      </root>
    </mxGraphModel>
  </diagram>
</mxfile>
